<svg xmlns="http://www.w3.org/2000/svg" xmlns:xlink="http://www.w3.org/1999/xlink" viewBox="0,0,256,256" width="120px" height="120px" fill-rule="nonzero"><g fill="#1f1e1b" fill-rule="nonzero" stroke="none" stroke-width="1" stroke-linecap="butt" stroke-linejoin="miter" stroke-miterlimit="10" stroke-dasharray="" stroke-dashoffset="0" font-family="none" font-weight="none" font-size="none" text-anchor="none" style="mix-blend-mode: normal"><path d="M0,256v-256h256v256z" id="bgRectangle"></path></g><g fill="#ffffff" fill-rule="nonzero" stroke="none" stroke-width="1" stroke-linecap="butt" stroke-linejoin="miter" stroke-miterlimit="10" stroke-dasharray="" stroke-dashoffset="0" font-family="none" font-weight="none" font-size="none" text-anchor="none" style="mix-blend-mode: normal"><g transform="scale(8.53333,8.53333)"><path d="M24,4h-18c-1.105,0 -2,0.895 -2,2v18c0,1.105 0.895,2 2,2h18c1.105,0 2,-0.895 2,-2v-18c0,-1.105 -0.895,-2 -2,-2zM15,20.38c0,1.777 -1.09,2.773 -2.9,2.773c-1.788,0 -2.927,-1.045 -2.927,-2.735h1.937c0.005,0.627 0.379,1.023 0.957,1.023c0.594,0 0.913,-0.374 0.913,-1.078v-5.365h2.02zM20.481,23.153c-2.009,0 -3.273,-0.946 -3.307,-2.476h1.926c0.049,0.578 0.626,0.946 1.463,0.946c0.754,0 1.272,-0.363 1.272,-0.886c0,-0.44 -0.347,-0.677 -1.255,-0.858l-1.045,-0.209c-1.453,-0.275 -2.201,-1.067 -2.201,-2.316c0,-1.552 1.244,-2.57 3.158,-2.57c1.86,0 3.147,1.007 3.18,2.476h-1.865c-0.044,-0.561 -0.578,-0.952 -1.289,-0.952c-0.709,0 -1.176,0.336 -1.176,0.864c0,0.435 0.352,0.688 1.188,0.853l1.022,0.198c1.569,0.303 2.273,1.012 2.273,2.272c0.001,1.657 -1.264,2.658 -3.344,2.658z"></path></g></g></svg>