<svg xmlns="http://www.w3.org/2000/svg" xmlns:xlink="http://www.w3.org/1999/xlink" viewBox="0,0,256,256" width="50px" height="50px" fill-rule="nonzero"><g fill="#ffffff" fill-rule="nonzero" stroke="none" stroke-width="1" stroke-linecap="butt" stroke-linejoin="miter" stroke-miterlimit="10" stroke-dasharray="" stroke-dashoffset="0" font-family="none" font-weight="none" font-size="none" text-anchor="none" style="mix-blend-mode: normal"><path d="M0,256v-256h256v256z" id="bgRectangle"></path></g><g fill="#000000" fill-rule="nonzero" stroke="none" stroke-width="1" stroke-linecap="butt" stroke-linejoin="miter" stroke-miterlimit="10" stroke-dasharray="" stroke-dashoffset="0" font-family="none" font-weight="none" font-size="none" text-anchor="none" style="mix-blend-mode: normal"><g transform="scale(5.12,5.12)"><path d="M25,2c-12.69071,0 -23,10.3093 -23,23c0,12.6907 10.30929,23 23,23c12.69071,0 23,-10.3093 23,-23c0,-12.6907 -10.30929,-23 -23,-23zM25,4c11.60983,0 21,9.39017 21,21c0,11.60983 -9.39017,21 -21,21c-11.60983,0 -21,-9.39017 -21,-21c0,-11.60982 9.39017,-21 21,-21zM30.64844,9.00195c-1.73763,0.02891 -3.61359,0.35867 -5.45703,1.01367c-3.511,1.247 -7.31097,3.20572 -10.04297,5.76172c-3.249,3.039 -3.76769,5.68306 -3.55469,6.78906c0.753,3.9 6.09792,6.4498 8.29492,8.3418v0.01172c-0.648,0.319 -5.38905,2.71692 -6.49805,5.16992c-1.171,2.588 0.18498,4.44531 1.08398,4.69531c2.784,0.775 5.63978,-0.6192 7.17578,-2.9082c1.481,-2.21 1.35884,-5.06242 0.71484,-6.48242c0.888,-0.234 1.92228,-0.3405 3.23828,-0.1875c3.713,0.434 4.44173,2.75266 4.30273,3.72266c-0.139,0.97 -0.91773,1.50502 -1.17773,1.66602c-0.26,0.161 -0.34036,0.21594 -0.31836,0.33594c0.032,0.174 0.15105,0.16886 0.37305,0.13086c0.306,-0.052 1.95148,-0.78908 2.02148,-2.58008c0.09,-2.274 -2.09122,-4.81795 -5.94922,-4.75195c-1.589,0.027 -2.58659,0.17927 -3.30859,0.44727c-0.053,-0.061 -0.10806,-0.12164 -0.16406,-0.18164c-2.385,-2.545 -6.79638,-4.34463 -6.60937,-7.76562c0.068,-1.244 0.49966,-4.51919 8.47266,-8.49219c6.531,-3.254 11.76106,-2.35805 12.66406,-0.37305c1.291,2.836 -2.79512,8.10524 -9.57812,8.86524c-2.584,0.29 -3.94325,-0.71099 -4.28125,-1.08398c-0.356,-0.393 -0.40997,-0.41089 -0.54297,-0.33789c-0.217,0.12 -0.079,0.46783 0,0.67383c0.203,0.527 1.03322,1.46078 2.44922,1.92578c1.246,0.409 4.28117,0.63484 7.95117,-0.78516c4.108,-1.59 7.317,-6.01298 6.375,-9.70898c-0.65863,-2.58431 -3.81197,-3.97571 -7.63477,-3.91211zM20.79883,32.07227c0.308,1.139 0.27503,2.20011 -0.04297,3.16211c-0.035,0.107 -0.07519,0.21436 -0.11719,0.31836c-0.042,0.104 -0.08772,0.20659 -0.13672,0.30859c-0.245,0.509 -0.57452,0.98383 -0.97852,1.42383c-1.23,1.342 -2.94659,1.84987 -3.68359,1.42188c-0.796,-0.461 -0.39866,-2.35238 1.02734,-3.85937c1.534,-1.622 3.74219,-2.66406 3.74219,-2.66406l-0.00391,-0.00781c0.063,-0.033 0.12836,-0.06752 0.19336,-0.10352z"></path></g></g></svg>